<?xml version="1.0" encoding="utf-8"?>
<!-- Generator: Adobe Illustrator 27.1.1, SVG Export Plug-In . SVG Version: 6.00 Build 0)  -->
<svg version="1.1" id="Capa_1" xmlns="http://www.w3.org/2000/svg" xmlns:xlink="http://www.w3.org/1999/xlink" x="0px" y="0px"
	 viewBox="0 0 107 183" style="enable-background:new 0 0 107 183;" xml:space="preserve">
<style type="text/css">
	.st0{fill:#F8BF17;}
	.st1{fill:#EC6321;}
	.st2{fill:#009BD9;}
	.st3{fill:#39BAE5;}
	.st4{fill:#62B231;}
	.st5{fill:#E01634;}
	.st6{fill:#D80361;}
	.st7{fill:#0A5B8C;}
	.st8{fill:#DBDCDD;}
	.st9{fill:#E3243C;}
	.st10{fill:#DEA53A;}
	.st11{fill:#4D9D45;}
	.st12{fill:#C3202F;}
	.st13{fill:#EE402B;}
	.st14{fill:#26BCE3;}
	.st15{fill:#F9C013;}
	.st16{fill:#A21D43;}
	.st17{fill:#F16A2C;}
	.st18{fill:#DD1767;}
	.st19{fill:#F89D27;}
	.st20{fill:#BE8C2C;}
	.st21{fill:#3F7D45;}
	.st22{fill:#1D94D2;}
	.st23{fill:#5BB947;}
	.st24{fill:#006A9D;}
	.st25{fill:#17486B;}
</style>
<path class="st0" d="M100,89.1c0-10.6-3.8-19.6-11.3-27.2C81.1,54.4,72,50.6,61.3,50.6h-9.7l-5.9,18.8h15.6c5.5,0,10.2,1.9,14,5.7
	c3.9,3.9,5.9,8.5,5.9,13.9"/>
<path class="st1" d="M81.1,89.1c0,5.5-1.9,10.3-5.7,14.2c-3.9,3.9-8.6,5.9-14,5.9c-6,0-11.1-2.3-15-6.9l-14.3,12.4
	c7.7,9,17.5,13.4,29.3,13.4c10.6,0,19.8-3.8,27.4-11.4c7.6-7.6,11.3-16.7,11.3-27.4"/>
<path class="st2" d="M51.5,50.6l2.5-7.9L51.5,50.6z"/>
<path class="st3" d="M67.4,0H0v18.7h41.8h19.7L67.4,0z"/>
<path class="st4" d="M16.1,99.8h19.7l9.8-30.3H26L16.1,99.8z"/>
<path class="st5" d="M41.8,18.7L25.9,69.4H26L41.8,18.7z"/>
<path class="st6" d="M55.7,37.6h29.9V18.7h-24L54,42.8L55.7,37.6z"/>
<path class="st2" d="M51.5,50.6l2.5-7.9l7.6-24.1H41.8L26,69.4h19.6L51.5,50.6z"/>
<path class="st7" d="M51.5,50.6l2.5-7.9l7.6-24.1H41.8L26,69.4h19.6L51.5,50.6z"/>
<path class="st7" d="M106.5,80.8H55.1v18.8h51.4V80.8z"/>
<path class="st8" d="M70.6,89.8c0-1.2-1.2-1.5-2.2-1.5c-0.7,0-1.3,0.1-2,0.5l-0.5-1c1.1-0.4,2-0.6,2.6-0.6c1.7,0,3.3,0.7,3.3,2.5
	v4.9h-1.2v-0.8c-0.7,0.7-1.3,0.9-2.3,0.9c-1.7,0-3.1-0.9-3.1-2.6c0-1.3,1.1-2.5,3.1-2.5c0.7,0,1.5,0.2,2.3,0.8L70.6,89.8L70.6,89.8z
	 M68.6,90.8c-1.5,0-2,0.7-2,1.5s0.5,1.5,2,1.5c1.5,0,2-0.7,2-1.5S70.1,90.8,68.6,90.8z"/>
<path class="st8" d="M78.7,90.5c0-1.1-0.4-2-1.7-2c-1.2,0-1.9,0.8-1.9,2.2v4.1H74v-7.2h1.2v0.9c0.4-0.7,1.2-1,2-1
	c1.4,0,2.8,0.7,2.8,2.7v4.7h-1.2V90.5z M74.9,86.2c0-0.9,0.4-1.5,1.2-1.5c0.7,0,1.6,0.7,2,0.7c0.2,0,0.5-0.1,0.6-0.6h0.6
	c0,0.9-0.4,1.5-1.2,1.5c-0.7,0-1.6-0.7-2-0.7c-0.2,0-0.5,0.1-0.6,0.6H74.9z"/>
<path class="st8" d="M85.8,87.3c2.3,0,3.9,1.7,3.9,3.8c0,2-1.5,3.8-3.9,3.8c-2.4,0-3.9-1.7-3.9-3.8C81.9,89,83.5,87.3,85.8,87.3z
	 M83.2,91c0,1.4,1.2,2.6,2.5,2.6s2.5-1.2,2.5-2.6c0-1.5-1.2-2.6-2.5-2.6S83.2,89.6,83.2,91z"/>
<path class="st8" d="M92.3,92.6c0.1,0.8,0.7,1.2,1.5,1.2c1.1,0,1.5-0.6,1.5-1S95,92,94,91.7l-1.2-0.4c-1.1-0.3-1.5-1-1.5-1.8
	c0-1.2,0.9-2.2,2.5-2.2c1.8,0,2.5,1.2,2.5,2.3h-1.2c-0.1-0.8-0.5-1.2-1.3-1.2c-0.8,0-1.3,0.4-1.3,1c0,0.4,0.2,0.7,0.8,0.9l1.7,0.5
	c1.2,0.4,1.5,0.9,1.5,1.9c0,1.5-1.3,2.3-2.6,2.3c-1.7,0-2.7-0.9-2.7-2.3L92.3,92.6L92.3,92.6z"/>
<path class="st7" d="M30.9,139h-2v-0.9h4.9v0.9h-2v6.9h-1V139z"/>
<path class="st7" d="M34.3,140.6h0.9v0.8c0.4-0.9,0.9-0.9,1.7-0.9v1c-0.1,0-0.3-0.1-0.4-0.1c-0.8,0-1.3,0.5-1.3,1.5v3.1h-0.9
	L34.3,140.6L34.3,140.6z"/>
<path class="st7" d="M41.6,142.3c0-0.9-0.9-1.1-1.6-1.1c-0.5,0-1,0.1-1.5,0.4l-0.4-0.8c0.8-0.4,1.5-0.4,2-0.4c1.3,0,2.5,0.6,2.5,1.8
	v3.7h-0.9v-0.6c-0.5,0.5-1,0.7-1.7,0.7c-1.3,0-2.3-0.7-2.3-2c0-1,0.9-1.9,2.3-1.9c0.6,0,1.2,0.1,1.7,0.6L41.6,142.3L41.6,142.3z
	 M40.1,143.1c-1.2,0-1.5,0.6-1.5,1.1c0,0.5,0.4,1.1,1.5,1.1c1.2,0,1.5-0.6,1.5-1.1C41.6,143.7,41.3,143.1,40.1,143.1z"/>
<path class="st7" d="M44.2,138.1h0.9v3.3c0.4-0.7,1.2-0.9,2-0.9c1.5,0,2.8,1.2,2.8,2.8c0,1.7-1.4,2.9-2.8,2.9c-0.9,0-1.6-0.4-2-0.9
	v0.8h-0.9V138.1z M47,141.3c-1,0-1.9,0.9-1.9,2c0,1.1,0.9,2,2,2c1,0,2-0.7,2-2C49,142.3,48.3,141.3,47,141.3z"/>
<path class="st7" d="M55,142.3c0-0.9-0.9-1.1-1.6-1.1c-0.5,0-1,0.1-1.5,0.4l-0.4-0.8c0.8-0.4,1.5-0.4,2-0.4c1.3,0,2.5,0.6,2.5,1.8
	v3.7h-0.8v-0.6c-0.5,0.5-1,0.7-1.7,0.7c-1.3,0-2.3-0.7-2.3-2c0-1,0.9-1.9,2.3-1.9c0.6,0,1.2,0.1,1.7,0.6V142.3z M53.6,143.1
	c-1.2,0-1.5,0.6-1.5,1.1c0,0.5,0.4,1.1,1.5,1.1c1.2,0,1.5-0.6,1.5-1.1C55.1,143.7,54.6,143.1,53.6,143.1z"/>
<path class="st7" d="M57.6,140.6h0.9v5.8c0,1.2-0.7,1.8-1.6,1.9v-0.9c0.4,0,0.7-0.4,0.7-0.9V140.6z M58.1,138.2
	c0.4,0,0.7,0.3,0.7,0.7s-0.3,0.7-0.7,0.7c-0.4,0-0.7-0.3-0.7-0.7S57.7,138.2,58.1,138.2z"/>
<path class="st7" d="M63.8,142.3c0-0.9-0.9-1.1-1.6-1.1c-0.5,0-1,0.1-1.5,0.4l-0.4-0.8c0.8-0.4,1.5-0.4,2-0.4c1.3,0,2.5,0.6,2.5,1.8
	v3.7h-0.9v-0.6c-0.5,0.5-1,0.7-1.7,0.7c-1.3,0-2.3-0.7-2.3-2c0-1,0.9-1.9,2.3-1.9c0.6,0,1.2,0.1,1.7,0.6L63.8,142.3L63.8,142.3z
	 M62.4,143.1c-1.2,0-1.5,0.6-1.5,1.1c0,0.5,0.4,1.1,1.5,1.1c1.2,0,1.5-0.6,1.5-1.1C63.9,143.7,63.5,143.1,62.4,143.1z"/>
<path class="st7" d="M70,142.8c0-0.8-0.4-1.5-1.2-1.5c-0.9,0-1.4,0.6-1.4,1.6v3.1h-0.9v-5.4h0.9v0.7c0.3-0.5,0.9-0.7,1.5-0.7
	c1,0,2.1,0.6,2.1,2v3.5H70V142.8z"/>
<path class="st7" d="M77.1,138.1h0.9v7.9h-0.9v-0.8c-0.4,0.6-1.1,0.9-2,0.9c-1.5,0-2.8-1.2-2.8-2.9c0-1.5,1.3-2.8,2.8-2.8
	c0.8,0,1.6,0.4,2,0.9V138.1z M75.2,141.3c-1.2,0-2,1-2,1.9c0,1.2,0.9,2,2,2c1.1,0,2-0.9,2-2C77.1,142.2,76.3,141.3,75.2,141.3z"/>
<path class="st7" d="M82.5,140.4c1.7,0,2.9,1.3,2.9,2.8s-1.2,2.8-2.9,2.8c-1.7,0-2.9-1.3-2.9-2.8C79.5,141.7,80.8,140.4,82.5,140.4z
	 M80.6,143.3c0,1,0.9,2,2,2c1,0,1.9-0.9,1.9-2c0-1.1-0.9-2-1.9-2C81.4,141.3,80.6,142.2,80.6,143.3z"/>
<path class="st7" d="M89.5,140.6h0.9v0.9c0.4-0.7,1.2-0.9,2-0.9c1.5,0,2.8,1.2,2.8,2.8c0,1.7-1.4,2.9-2.8,2.9c-0.9,0-1.6-0.4-2-0.9
	v3.1h-0.9V140.6z M92.3,141.3c-1,0-1.9,0.9-1.9,2c0,1.1,0.9,2,2,2c1,0,2-0.7,2-2C94.3,142.3,93.6,141.3,92.3,141.3z"/>
<path class="st7" d="M99.4,140.4c1.7,0,2.9,1.3,2.9,2.8s-1.2,2.8-2.9,2.8c-1.7,0-2.9-1.3-2.9-2.8S97.7,140.4,99.4,140.4z
	 M97.5,143.3c0,1,0.9,2,2,2c1,0,1.9-0.9,1.9-2c0-1.1-0.9-2-1.9-2C98.4,141.3,97.5,142.2,97.5,143.3z"/>
<path class="st7" d="M103.8,140.6h0.9v0.8c0.4-0.9,0.9-0.9,1.7-0.9v1c-0.1,0-0.3-0.1-0.4-0.1c-0.8,0-1.3,0.5-1.3,1.5v3.1h-0.9V140.6
	z"/>
<path class="st7" d="M6.3,158.6c-0.3,0.5-0.9,0.7-1.5,0.7c-1,0-2.1-0.6-2.1-2v-3.5h0.9v3.1c0,0.8,0.4,1.5,1.2,1.5s1.4-0.6,1.4-1.6
	v-3.1h0.9v5.4H6.3V158.6z"/>
<path class="st7" d="M12.5,156.1c0-0.8-0.4-1.5-1.2-1.5c-0.9,0-1.4,0.6-1.4,1.6v3.1H9v-5.4h0.9v0.7c0.3-0.5,0.9-0.7,1.5-0.7
	c1,0,2.1,0.6,2.1,2v3.5h-0.9V156.1z"/>
<path class="st7" d="M17.9,153c0-1.2,0.8-1.7,1.9-1.7v0.9h-0.2c-0.5,0-0.7,0.4-0.7,0.9v0.7h0.9v0.8h-0.9v4.6h-0.9v-4.6h-0.8v-0.8
	h0.8V153z"/>
<path class="st7" d="M24.4,158.6c-0.3,0.5-0.9,0.7-1.5,0.7c-1,0-2.1-0.6-2.1-2v-3.5h0.9v3.1c0,0.8,0.4,1.5,1.2,1.5
	c0.9,0,1.4-0.6,1.4-1.6v-3.1h0.9v5.4h-0.9L24.4,158.6L24.4,158.6z"/>
<path class="st7" d="M27.1,152.5h0.9v1.3H29v0.8h-0.9v3.3c0,0.3,0.1,0.4,0.4,0.4H29v0.9c-0.1,0-0.4,0-0.6,0c-0.9,0-1.2-0.4-1.2-1.2
	v-3.4h-0.7v-0.8h0.7V152.5z"/>
<path class="st7" d="M33.7,158.6c-0.3,0.5-0.9,0.7-1.5,0.7c-1,0-2.1-0.6-2.1-2v-3.5H31v3.1c0,0.8,0.4,1.5,1.2,1.5
	c0.9,0,1.4-0.6,1.4-1.6v-3.1h0.9v5.4h-0.9L33.7,158.6L33.7,158.6z"/>
<path class="st7" d="M36.3,153.8h0.9v0.8c0.4-0.9,0.9-0.9,1.7-0.9v1c-0.1,0-0.3-0.1-0.4-0.1c-0.8,0-1.3,0.5-1.3,1.5v3.1h-0.9
	L36.3,153.8L36.3,153.8z"/>
<path class="st7" d="M42.6,153.7c1.7,0,2.9,1.3,2.9,2.8s-1.2,2.8-2.9,2.8c-1.7,0-2.9-1.3-2.9-2.8S41,153.7,42.6,153.7z M40.8,156.6
	c0,1,0.9,2,2,2c1,0,1.9-0.9,1.9-2c0-1.1-0.9-2-1.9-2C41.6,154.6,40.8,155.4,40.8,156.6z"/>
<path class="st7" d="M49.6,153.8h0.9v0.9c0.4-0.7,1.2-0.9,2-0.9c1.5,0,2.8,1.2,2.8,2.8c0,1.7-1.4,2.9-2.8,2.9c-0.9,0-1.6-0.4-2-0.9
	v3.1h-0.9V153.8z M52.5,154.6c-1,0-1.9,0.9-1.9,2c0,1.1,0.9,2,2,2c1,0,2-0.7,2-2C54.5,155.6,53.8,154.6,52.5,154.6z"/>
<path class="st7" d="M56.9,153.8h0.9v0.8c0.4-0.9,0.9-0.9,1.7-0.9v1c-0.1,0-0.3-0.1-0.4-0.1c-0.8,0-1.3,0.5-1.3,1.5v3.1h-0.9
	L56.9,153.8L56.9,153.8z"/>
<path class="st7" d="M63.2,153.7c1.7,0,2.9,1.3,2.9,2.8s-1.2,2.8-2.9,2.8c-1.7,0-2.9-1.3-2.9-2.8C60.3,155.1,61.5,153.7,63.2,153.7z
	 M61.3,156.6c0,1,0.9,2,2,2c1,0,1.9-0.9,1.9-2c0-1.1-0.9-2-1.9-2C62.1,154.6,61.3,155.4,61.3,156.6z"/>
<path class="st7" d="M72.2,151.3h0.9v7.9h-0.9v-0.8c-0.4,0.6-1.1,0.9-2,0.9c-1.5,0-2.8-1.2-2.8-2.9c0-1.5,1.3-2.8,2.8-2.8
	c0.8,0,1.6,0.4,2,0.9V151.3z M70.3,154.6c-1.2,0-2,1-2,1.9c0,1.2,0.9,2,2,2c1.1,0,2-0.9,2-2C72.2,155.5,71.3,154.6,70.3,154.6z"/>
<path class="st7" d="M78.4,158.6c-0.3,0.5-0.9,0.7-1.5,0.7c-1,0-2.1-0.6-2.1-2v-3.5h0.9v3.1c0,0.8,0.4,1.5,1.2,1.5s1.4-0.6,1.4-1.6
	v-3.1h0.9v5.4h-0.9V158.6z"/>
<path class="st7" d="M84.7,155.1c-0.4-0.4-0.8-0.5-1.2-0.5c-0.9,0-1.8,0.7-1.8,2c0,1.1,0.8,1.9,1.9,1.9c0.4,0,0.9-0.2,1.2-0.6
	l0.6,0.7c-0.5,0.5-1.2,0.7-1.9,0.7c-1.7,0-2.8-1.3-2.8-2.8s1.2-2.8,2.8-2.8c0.8,0,1.5,0.4,1.9,0.7L84.7,155.1z"/>
<path class="st7" d="M87,152.5h0.9v1.3h0.9v0.8h-0.9v3.3c0,0.3,0.1,0.4,0.4,0.4h0.4v0.9c-0.1,0-0.4,0-0.6,0c-0.9,0-1.2-0.4-1.2-1.2
	v-3.4h-0.7v-0.8H87V152.5z"/>
<path class="st7" d="M90.5,151.5c0.4,0,0.7,0.3,0.7,0.7s-0.3,0.7-0.7,0.7c-0.4,0-0.7-0.3-0.7-0.7S90.1,151.5,90.5,151.5z M90,153.8
	H91v5.4H90V153.8z"/>
<path class="st7" d="M96.5,153.8h1.1l-2.3,5.4h-0.9l-2.3-5.4h1.1l1.7,4.1L96.5,153.8z"/>
<path class="st7" d="M101.1,153.7c1.7,0,2.9,1.3,2.9,2.8s-1.2,2.8-2.9,2.8c-1.7,0-2.9-1.3-2.9-2.8
	C98.2,155.1,99.4,153.7,101.1,153.7z M99.2,156.6c0,1,0.9,2,2,2c1,0,1.9-0.9,1.9-2c0-1.1-0.9-2-1.9-2
	C100.1,154.6,99.2,155.4,99.2,156.6z"/>
<path class="st7" d="M105.5,158l0.9,0.4l-1.3,2.5l-0.7-0.3L105.5,158z"/>
<path class="st7" d="M1,164.7c0.4,0,0.7,0.3,0.7,0.7S1.4,166,1,166c-0.4,0-0.7-0.3-0.7-0.7S0.7,164.7,1,164.7z M0.5,167.1h0.9v5.4
	H0.5V167.1z"/>
<path class="st7" d="M6.8,169.4c0-0.8-0.4-1.5-1.2-1.5s-1.4,0.6-1.4,1.6v3.1H3.2v-5.4h0.9v0.7c0.3-0.5,0.9-0.7,1.5-0.7
	c1,0,2.1,0.6,2.1,2v3.5H6.8V169.4z"/>
<path class="st7" d="M13.1,168.4c-0.4-0.4-0.8-0.5-1.2-0.5c-0.9,0-1.8,0.7-1.8,2c0,1.1,0.8,1.9,1.9,1.9c0.4,0,0.9-0.2,1.2-0.6
	l0.6,0.7c-0.5,0.5-1.2,0.7-1.9,0.7c-1.7,0-2.8-1.3-2.8-2.8c0-1.5,1.2-2.8,2.8-2.8c0.8,0,1.5,0.4,1.9,0.7L13.1,168.4z"/>
<path class="st7" d="M15.7,164.7v6.2c0,0.6,0.3,0.8,0.6,0.8h0.3v0.9h-0.4c-0.9,0-1.5-0.5-1.5-1.6v-6.3H15.7z"/>
<path class="st7" d="M21.1,171.9c-0.3,0.5-0.9,0.7-1.5,0.7c-1,0-2.1-0.6-2.1-2v-3.5h0.9v3.1c0,0.8,0.4,1.5,1.2,1.5
	c0.9,0,1.4-0.6,1.4-1.6v-3.1H22v5.4H21L21.1,171.9L21.1,171.9z"/>
<path class="st7" d="M24.3,170.9c0.1,0.6,0.6,0.9,1.1,0.9c0.9,0,1.1-0.4,1.1-0.8s-0.2-0.6-0.9-0.8l-0.9-0.3
	c-0.8-0.2-1.1-0.7-1.1-1.4c0-0.9,0.7-1.6,1.9-1.6c1.4,0,1.9,0.9,1.9,1.7h-0.9c-0.1-0.6-0.4-0.9-1-0.9c-0.6,0-0.9,0.4-0.9,0.8
	c0,0.3,0.1,0.5,0.6,0.7l1.2,0.4c0.9,0.2,1.2,0.7,1.2,1.4c0,1.1-0.9,1.7-2,1.7c-1.2,0-2-0.7-2-1.7L24.3,170.9L24.3,170.9z"/>
<path class="st7" d="M29.3,164.7c0.4,0,0.7,0.3,0.7,0.7s-0.3,0.7-0.7,0.7c-0.4,0-0.7-0.3-0.7-0.7S28.9,164.7,29.3,164.7z
	 M28.8,167.1h0.9v5.4h-0.9V167.1z"/>
<path class="st7" d="M35.3,167.1h1.1l-2.3,5.4h-0.9l-2.3-5.4h1.1l1.7,4.1L35.3,167.1z"/>
<path class="st7" d="M39.9,167c1.7,0,2.9,1.3,2.9,2.8s-1.2,2.8-2.9,2.8c-1.7,0-2.9-1.3-2.9-2.8S38.2,167,39.9,167z M38,169.8
	c0,1,0.9,2,2,2c1,0,1.9-0.9,1.9-2c0-1.1-0.9-2-1.9-2C38.9,167.9,38,168.7,38,169.8z"/>
<path class="st7" d="M48.5,172.4l-2.3-5.3h1.1l1.7,4.1l1.7-4.1h1l-3.3,7.7h-0.9L48.5,172.4z"/>
<path class="st7" d="M56,170.9c0.1,0.6,0.6,0.9,1.1,0.9c0.9,0,1.1-0.4,1.1-0.8s-0.2-0.6-0.9-0.8l-0.9-0.3c-0.8-0.2-1.1-0.7-1.1-1.4
	c0-0.9,0.7-1.6,1.9-1.6c1.4,0,1.9,0.9,1.9,1.7h-0.9c-0.1-0.6-0.4-0.9-1-0.9c-0.6,0-0.9,0.4-0.9,0.8c0,0.3,0.1,0.5,0.6,0.7l1.2,0.4
	c0.9,0.2,1.2,0.7,1.2,1.4c0,1.1-0.9,1.7-2,1.7c-1.2,0-2-0.7-2-1.7L56,170.9L56,170.9z"/>
<path class="st7" d="M63.2,167c1.7,0,2.9,1.3,2.9,2.8s-1.2,2.8-2.9,2.8c-1.7,0-2.9-1.3-2.9-2.8S61.6,167,63.2,167z M61.3,169.8
	c0,1,0.9,2,2,2c1,0,1.9-0.9,1.9-2c0-1.1-0.9-2-1.9-2C62.2,167.9,61.3,168.7,61.3,169.8z"/>
<path class="st7" d="M68.2,170.9c0.1,0.6,0.6,0.9,1.1,0.9c0.9,0,1.1-0.4,1.1-0.8s-0.2-0.6-0.9-0.8l-0.9-0.3
	c-0.8-0.2-1.1-0.7-1.1-1.4c0-0.9,0.7-1.6,1.9-1.6c1.4,0,1.9,0.9,1.9,1.7h-0.9c-0.1-0.6-0.4-0.9-1-0.9c-0.6,0-0.9,0.4-0.9,0.8
	c0,0.3,0.1,0.5,0.6,0.7l1.2,0.4c0.9,0.2,1.2,0.7,1.2,1.4c0,1.1-0.9,1.7-2,1.7c-1.2,0-2-0.7-2-1.7L68.2,170.9L68.2,170.9z"/>
<path class="st7" d="M72.8,165.8h0.9v1.3h0.9v0.8h-0.9v3.3c0,0.3,0.1,0.4,0.4,0.4h0.4v0.9c-0.1,0-0.4,0-0.6,0
	c-0.9,0-1.2-0.4-1.2-1.2v-3.4h-0.7v-0.8h0.7V165.8z"/>
<path class="st7" d="M80.8,171.5c-0.7,0.8-1.5,1.2-2.4,1.2c-1.9,0-2.9-1.4-2.9-2.8c0-1.5,1.1-2.8,2.8-2.8c1.7,0,2.8,1.3,2.8,3.2
	h-4.7c0.1,0.9,0.9,1.6,2,1.6c0.7,0,1.2-0.3,1.7-0.9L80.8,171.5z M80,169.4c-0.1-0.9-0.8-1.5-1.8-1.5c-1.2,0-1.7,0.8-1.8,1.5H80z"/>
<path class="st7" d="M86,169.4c0-0.8-0.4-1.5-1.2-1.5c-0.9,0-1.4,0.6-1.4,1.6v3.1h-0.9v-5.4h0.9v0.7c0.3-0.5,0.9-0.7,1.5-0.7
	c1,0,2.1,0.6,2.1,2v3.5H86V169.4z"/>
<path class="st7" d="M89.1,164.7c0.4,0,0.7,0.3,0.7,0.7s-0.3,0.7-0.7,0.7c-0.4,0-0.7-0.3-0.7-0.7S88.7,164.7,89.1,164.7z
	 M88.6,167.1h0.9v5.4h-0.9V167.1z"/>
<path class="st7" d="M91.3,164.7h0.9v3.3c0.4-0.7,1.2-0.9,2-0.9c1.5,0,2.8,1.2,2.8,2.8c0,1.7-1.4,2.9-2.8,2.9c-0.9,0-1.6-0.4-2-0.9
	v0.8h-0.9V164.7z M94.1,167.9c-1,0-1.9,0.9-1.9,2c0,1.1,0.9,2,2,2c1,0,2-0.7,2-2C96.1,168.9,95.3,167.9,94.1,167.9z"/>
<path class="st7" d="M99.3,164.7v6.2c0,0.6,0.3,0.8,0.6,0.8h0.3v0.9h-0.4c-0.9,0-1.5-0.5-1.5-1.6v-6.3H99.3z"/>
<path class="st7" d="M106.2,171.5c-0.7,0.8-1.5,1.2-2.4,1.2c-1.9,0-2.9-1.4-2.9-2.8c0-1.5,1.1-2.8,2.8-2.8c1.7,0,2.8,1.3,2.8,3.2
	h-4.7c0.1,0.9,0.9,1.6,2,1.6c0.7,0,1.2-0.3,1.7-0.9L106.2,171.5z M105.4,169.4c-0.1-0.9-0.8-1.5-1.8-1.5c-1.2,0-1.7,0.8-1.8,1.5
	H105.4z"/>
<path class="st9" d="M6.5,180.5H0.2v2.5h6.3V180.5z"/>
<path class="st10" d="M12.7,180.5H6.5v2.5h6.3V180.5z"/>
<path class="st11" d="M19,180.5h-6.3v2.5H19V180.5z"/>
<path class="st12" d="M25.3,180.5H19v2.5h6.3V180.5z"/>
<path class="st13" d="M31.5,180.5h-6.3v2.5h6.3V180.5z"/>
<path class="st14" d="M37.8,180.5h-6.3v2.5h6.3V180.5z"/>
<path class="st15" d="M44,180.5h-6.3v2.5H44V180.5z"/>
<path class="st16" d="M50.2,180.5H44v2.5h6.3V180.5z"/>
<path class="st17" d="M56.5,180.5h-6.3v2.5h6.3V180.5z"/>
<path class="st18" d="M62.7,180.5h-6.3v2.5h6.3V180.5z"/>
<path class="st19" d="M69,180.5h-6.3v2.5H69V180.5z"/>
<path class="st20" d="M75.2,180.5H69v2.5h6.3V180.5z"/>
<path class="st21" d="M81.5,180.5h-6.3v2.5h6.3V180.5z"/>
<path class="st22" d="M87.8,180.5h-6.3v2.5h6.3V180.5z"/>
<path class="st23" d="M94,180.5h-6.3v2.5H94V180.5z"/>
<path class="st24" d="M100.3,180.5H94v2.5h6.3V180.5z"/>
<path class="st25" d="M106.5,180.5h-6.3v2.5h6.3V180.5z"/>
</svg>
