<?xml version="1.0" encoding="utf-8"?>
<!-- Generator: Adobe Illustrator 25.3.1, SVG Export Plug-In . SVG Version: 6.00 Build 0)  -->
<svg version="1.1" id="Layer_1" xmlns="http://www.w3.org/2000/svg" xmlns:xlink="http://www.w3.org/1999/xlink" x="0px" y="0px"
	 viewBox="0 0 80 98.3" style="enable-background:new 0 0 80 98.3;" xml:space="preserve">
<style type="text/css">
	.st0{fill-rule:evenodd;clip-rule:evenodd;fill:#00528A;}
	.st1{fill:#00528A;}
</style>
<path class="st0" d="M6.6,54.6c0,0.1,0,0.1-0.2,0.1v0.1h1.4v-0.1c-0.2,0-0.2-0.1-0.2-0.1v-2.3c2,2.2,2.2,2.3,2.2,2.4s0,0.1-0.2,0.1
	v0.1H11v-0.1c-0.2,0-0.2-0.1-0.2-0.1v-3.5c0-0.1,0-0.1,0.2-0.1v-0.1H9.7V51c0.1,0,0.1,0,0.2,0.1c0,0,0,0,0,0v2c-0.5-0.6-1.8-2-1.8-2
	S8,51,8.2,51v-0.1H6.4V51c0.2,0,0.2,0.1,0.2,0.1V54.6z"/>
<path class="st0" d="M13.6,53.6l0.6-1.3l0.6,1.3L13.6,53.6L13.6,53.6z M16.5,54.8L16.5,54.8c-0.1-0.1-0.1-0.1-0.1-0.2
	c-0.3-0.8-1.3-2.9-1.3-3s0-0.1,0.1-0.1v-0.1h-1.6v0.1c0.1,0,0.1,0,0.1,0.1s-0.7,1.6-1.3,3c0,0-0.1,0.1-0.1,0.1v0.1h1.1v-0.1
	c0,0-0.1,0-0.1-0.1c0,0,0,0,0,0c0.1-0.2,0.1-0.3,0.2-0.5h1.8c0.1,0.2,0.2,0.3,0.2,0.5c0,0,0,0.1-0.1,0.1c0,0,0,0,0,0v0.1H16.5
	L16.5,54.8z"/>
<path class="st0" d="M21.1,51.6c0,0-0.1,0.1-0.1,0.1c-0.2,0-0.4-0.1-0.5-0.1c-0.3-0.1-0.6-0.1-0.9-0.1c-1.1,0-2.2,0.5-2.2,1.7
	s1.1,1.7,2.2,1.7c0.6,0,1.2-0.2,1.7-0.5c0,0,0.1,0,0.1,0.1l0.1,0l-0.7-1l-0.1,0c0,0,0,0.1,0,0.1c-0.3,0.3-0.7,0.5-1.1,0.5
	c-0.5,0.1-1-0.1-1.2-0.6c-0.1-0.5,0.1-1,0.6-1.2c0.2-0.1,0.4-0.1,0.5,0c0.4,0,0.7,0.1,1,0.3c0,0,0,0.1,0,0.1l0.1,0L21.1,51.6
	L21.1,51.6z"/>
<path class="st0" d="M22.3,51.5L22.3,51.5c0.1,0.1,0.2,0.1,0.2,0.2v2.9c0,0.1-0.1,0.1-0.2,0.1v0.1h1.5v-0.1c-0.1,0-0.2,0-0.2-0.1
	v-2.9c0-0.1,0.1-0.1,0.2-0.1v-0.1H22.3z"/>
<path class="st0" d="M26.8,51.5c-0.9-0.1-1.8,0.5-2,1.4c-0.1,0.9,0.5,1.8,1.4,2c0.2,0,0.3,0,0.5,0c0.9,0.1,1.8-0.5,2-1.4
	c0.1-0.9-0.5-1.8-1.4-2C27.1,51.4,27,51.4,26.8,51.5z M26.8,52.3c0.5,0,0.9,0.5,0.8,1s-0.5,0.9-1,0.8c-0.5,0-0.8-0.4-0.8-0.9
	C25.8,52.7,26.2,52.3,26.8,52.3C26.8,52.3,26.8,52.3,26.8,52.3L26.8,52.3z"/>
<path class="st0" d="M33.6,51.7c0-0.1,0.1-0.1,0.2-0.1v-0.1h-1.3v0.1c0.1,0,0.2,0,0.2,0.1v1.5c-0.6-0.7-1.4-1.4-1.4-1.5
	c0-0.1,0.1-0.1,0.1-0.1c0,0,0,0,0,0v-0.1h-1.8v0.1c0.1,0,0.2,0,0.2,0.1v2.9c0,0.1-0.1,0.1-0.2,0.1v0.1H31v-0.1c-0.1,0-0.2,0-0.2-0.1
	v-2l0,0c0.6,0.6,1.2,1.3,1.8,2c0,0.1-0.1,0.1-0.2,0.1v0.1h1.4v-0.1c-0.1,0-0.2,0-0.2-0.1L33.6,51.7L33.6,51.7z"/>
<path class="st0" d="M36.2,54.2v-0.8h1.4c0.1,0,0.1,0.1,0.1,0.1c0,0,0,0,0,0h0.1v-1h-0.1c0,0.1,0,0.2-0.1,0.2c0,0,0,0,0,0h-1.4v-0.6
	h2.2c0.1,0,0.1,0,0.1,0.2h0.1v-1h-0.1c0,0.1,0,0.1-0.1,0.2c0,0,0,0,0,0h-3.4v0.1c0.1,0,0.2,0,0.2,0.1v2.9c0,0.1-0.1,0.1-0.2,0.1v0.1
	h3.4c0.1,0,0.2,0,0.2,0.1c0,0,0,0,0,0h0.1v-1h-0.1c0,0.1-0.1,0.2-0.2,0.2L36.2,54.2L36.2,54.2z"/>
<path class="st0" d="M39.5,54.7L39.5,54.7c0.1-0.1,0.2-0.1,0.2-0.1c0.5,0.1,1.1,0.2,1.6,0.3c1.2,0,1.7-0.5,1.7-1.1
	c0-1.3-2.5-0.8-2.5-1.3c0-0.3,0.7-0.3,0.9-0.3c0.4,0,0.7,0.1,1,0.3c0,0,0,0.1,0,0.1h0.1l0.5-1h-0.1c0,0.1-0.1,0.1-0.2,0.1
	c-0.5-0.1-1-0.2-1.5-0.2c-1.2,0-1.7,0.7-1.7,1.1c0,1.3,2.5,0.7,2.5,1.3c0,0.3-0.5,0.3-0.7,0.3c-0.5,0-1-0.1-1.4-0.3c0,0,0-0.1,0-0.1
	h-0.1L39.5,54.7z"/>
<path class="st0" d="M50,53.1c-0.2,0.5-0.8,0.8-1.3,0.6c-0.3-0.1-0.5-0.3-0.6-0.6v-2c0-0.1,0-0.1,0.2-0.1v-0.1h-1.6V51
	c0.2,0,0.2,0.1,0.2,0.1v2c0,1.3,0.9,1.8,2.1,1.8s2.1-0.4,2.1-1.8v-2c0-0.1,0-0.1,0.2-0.1v-0.1h-1.6V51C50,51,50,51,50,51.1L50,53.1
	L50,53.1z"/>
<path class="st0" d="M56.5,51.7c0-0.1,0.1-0.1,0.2-0.1v-0.1h-1.3v0.1c0.1,0,0.2,0,0.2,0.1v1.5c-0.6-0.7-1.4-1.4-1.4-1.5
	c0-0.1,0.1-0.1,0.2-0.1c0,0,0,0,0,0v-0.1h-1.8v0.1c0.1,0,0.2,0,0.2,0.1v2.9c0,0.1-0.1,0.1-0.2,0.1v0.1h1.3v-0.1
	c-0.1,0-0.2,0-0.2-0.1v-2l0,0c0.6,0.6,1.2,1.3,1.8,2c0,0.1-0.1,0.1-0.2,0.1v0.1h1.4v-0.1c-0.1,0-0.2,0-0.2-0.1L56.5,51.7L56.5,51.7z
	"/>
<path class="st0" d="M57.9,51.5L57.9,51.5c0.2,0.1,0.2,0.1,0.2,0.2v2.9c0,0.1-0.1,0.1-0.2,0.1v0.1h1.5v-0.1c-0.2,0-0.2,0-0.2-0.1
	v-2.9c0-0.1,0.1-0.1,0.2-0.1v-0.1H57.9z"/>
<path class="st0" d="M60.7,54.6c0,0.1-0.1,0.1-0.2,0.1v0.1h2.3c0.9-0.1,1.6-0.9,1.5-1.8c-0.1-0.8-0.7-1.5-1.5-1.5h-2.2v0.1
	c0.1,0,0.2,0,0.2,0.1L60.7,54.6L60.7,54.6z M61.7,52.2h0.5c0.8,0,1.1,0.3,1.1,0.9s-0.3,0.9-1.1,0.9h-0.5L61.7,52.2L61.7,52.2z"/>
<path class="st0" d="M66.6,53.6l0.6-1.3l0.6,1.3L66.6,53.6L66.6,53.6z M69.5,54.8L69.5,54.8c-0.1-0.1-0.1-0.1-0.2-0.2
	c-0.3-0.8-1.3-2.9-1.3-3s0-0.1,0.1-0.1v-0.1h-1.6v0.1c0.1,0,0.1,0,0.1,0.1s-0.7,1.6-1.3,3c0,0-0.1,0.1-0.2,0.1v0.1h1.1v-0.1
	c0,0-0.1,0-0.1-0.1c0,0,0,0,0,0c0.1-0.2,0.1-0.3,0.2-0.5h1.8c0.1,0.2,0.2,0.3,0.2,0.5c0,0,0,0.1-0.1,0.1c0,0,0,0,0,0v0.1H69.5
	L69.5,54.8z"/>
<path class="st0" d="M70.3,54.7L70.3,54.7c0.1-0.1,0.2-0.1,0.2-0.1c0.5,0.1,1.1,0.2,1.6,0.3c1.2,0,1.7-0.5,1.7-1.1
	c0-1.3-2.5-0.8-2.5-1.3c0-0.3,0.7-0.3,0.9-0.3c0.4,0,0.7,0.1,1,0.3c0,0,0,0.1,0,0.1h0.1l0.4-1h-0.1c0,0.1-0.1,0.1-0.2,0.1
	c-0.5-0.1-1-0.2-1.5-0.2c-1.2,0-1.7,0.7-1.7,1.1c0,1.3,2.5,0.7,2.5,1.3c0,0.3-0.5,0.3-0.7,0.3c-0.5,0.1-1.1-0.1-1.5-0.4
	c0,0,0-0.1,0-0.1h-0.1L70.3,54.7z"/>
<rect x="39.6" y="77.8" class="st1" width="1.6" height="5.3"/>
<rect x="55" y="77.8" class="st1" width="1.6" height="5.3"/>
<path class="st0" d="M0,68.9v29.3h80V68.9H0z M11.8,80.2h-1.5v-2.4H8.7V90h1.6v-2.4h1.6v1.8c0.1,1.3-0.9,2.4-2.2,2.5
	c-1.3,0.1-2.4-0.9-2.5-2.2c0-0.1,0-0.2,0-0.3V78.5c-0.1-1.3,0.9-2.4,2.2-2.5c1.3-0.1,2.4,0.9,2.5,2.2c0,0.1,0,0.2,0,0.3L11.8,80.2
	L11.8,80.2z M27.2,77.8h-3.1v5.3h2.3v1.6h-2.3V90h3.1v1.6h-3.1c-0.9,0-1.6-0.7-1.6-1.6c0,0,0,0,0,0V77.8c0-0.9,0.7-1.6,1.5-1.6
	c0,0,0,0,0,0h3.1L27.2,77.8L27.2,77.8z M42.7,83.1c0,0.9-0.7,1.6-1.5,1.6c0,0,0,0,0,0h-1.5v6.9H38V76.2h3.1c0.9,0,1.6,0.7,1.6,1.6
	c0,0,0,0,0,0V83.1z M58.1,91.6h-1.5v-6.9H55v6.9h-1.5V78.5c0-1.3,1-2.3,2.3-2.3s2.3,1,2.3,2.3L58.1,91.6L58.1,91.6z M73.9,91.6h-4.7
	V76.2h1.6V90h1.6v-3.2h1.6L73.9,91.6L73.9,91.6z"/>
<path class="st1" d="M21.5,18.6C21.5,8.3,29.8,0.1,40,0.1c10.2,0,18.5,8.3,18.5,18.6c0,10.2-8.3,18.5-18.5,18.5
	C29.7,37.2,21.4,28.8,21.5,18.6C21.5,18.6,21.5,18.6,21.5,18.6z M29,8.3l-2.1-2c-3,3.3-4.8,7.5-4.8,12H25C25,14.6,26.5,11,29,8.3z
	 M31.5,10.7l-2.1-2c-2.4,2.6-3.8,6-3.9,9.6h2.9C28.5,15.5,29.6,12.8,31.5,10.7L31.5,10.7z M51,28.9l2.1,2c3-3.3,4.8-7.5,4.8-12H55
	C55,22.6,53.5,26.1,51,28.9z M39.7,3.5V0.6c-4.7,0.1-9.1,2-12.4,5.3l2.1,2C32.2,5.1,35.8,3.6,39.7,3.5z M39.7,7V4.1
	c-3.7,0.1-7.2,1.6-9.8,4.2l2.1,2C34,8.2,36.8,7.1,39.7,7z M39.7,11.1V7.6c-2.8,0.1-5.4,1.2-7.3,3.1l2.5,2.4
	C36.2,11.9,37.9,11.2,39.7,11.1z M39.7,36.6v-2.9c-3.9-0.1-7.5-1.7-10.3-4.4l-2.1,2C30.6,34.6,35,36.5,39.7,36.6z M40.3,7.6v3.5
	c1.8,0.1,3.5,0.8,4.8,2.1l2.5-2.4C45.7,8.8,43.1,7.7,40.3,7.6L40.3,7.6z M27.7,27.2c-0.3-0.1-0.6-0.3-0.8-0.4
	c-0.1-0.2-0.2-0.3-0.3-0.5c-0.2-0.2-0.3-0.2-0.6-0.3s0.2-0.2-0.3-0.4c-0.2,0.1-0.3,0.1-0.5,0.1c-0.3-0.1-0.3-0.6-0.5-0.6
	c-0.5,0-0.6-0.7-0.7-1.2c-0.1-0.9,0.6-0.7,0.6-0.7l0.5,0.2l0.2-0.4h0.3c-0.4-1.3-0.6-2.7-0.6-4.1h-2.9c0.1,4.5,1.8,8.7,4.8,12l2.1-2
	C28.5,28.4,28.1,27.8,27.7,27.2z M29.8,28h-0.1c-0.2,0-0.4,0.1-0.5,0.2l0.2,0.2L29.8,28z M33.8,28.4L33.8,28.4
	c-0.2,0.3-0.3,0.2-0.9,0.3c-0.4,0.1-0.8,0.3-1.2,0.4c-0.4,0.1-0.4,0-0.7-0.4c-0.2-0.2-0.4-0.3-0.6-0.5l-0.6,0.6
	c2.6,2.6,6.1,4.1,9.8,4.2v-2.8C37.6,30.1,35.6,29.5,33.8,28.4L33.8,28.4z M26.6,23.1c0.4-0.1,0.6,0,1,0s0.2-1,0.2-1.4
	c0.1-0.4,0.3-0.8,0.7-1.1c0-0.1,0.1-0.1,0.1-0.2c-0.1-0.5-0.1-1-0.1-1.5h-2.9c0,1.4,0.3,2.9,0.7,4.3C26.4,23.2,26.5,23.2,26.6,23.1
	L26.6,23.1z M45.9,13.3c0.3,0.5,0.6,0.9,1,1.3c0.4,0.3,0.9,0.5,1.3,0.8c0.3,0.2-0.4,0.2-0.1,0.5c0.3,0.2,0.8-0.4,1-0.4
	c0.3,0,0.5,0.2,0.5,0.4c0,0,0,0,0,0.1c0,0.4-0.2,0.8,0,0.8c0.5-0.3,0.8-0.9,0.8-1.4c-0.1-0.3-0.2-0.7-0.4-1c-0.4-0.2-0.7-0.5-1-0.8
	c0-0.2,0.1-0.4,0.3-0.4c0,0,0.1,0,0.1,0c-0.4-0.6-0.8-1.2-1.3-1.8L45.9,13.3z M37.3,15.5c0.2,0,0.4,0,0.6,0c0.7-0.1,0.5-1.1,1-1
	c0.3,0.1,0.5,0.1,0.8,0v-2.8c-1.7,0.1-3.2,0.7-4.4,1.9L37.3,15.5z M34.2,15c0.2-0.1,0.5-0.1,0.8-0.1c0.4-0.1,0.9,0.2,1,0.6
	c0,0.1,0,0.1,0,0.2c0.2,0,0.3-0.1,0.5-0.1L34.8,14C34.6,14.3,34.4,14.7,34.2,15z M31.1,18.3c0.1-0.2,0.2-0.5,0.2-0.8
	c-0.1-0.7,0.4-1.4,1.1-1.5c0,0,0,0,0,0c0.9-0.1-0.1-0.4,0.4-0.5l0.5-0.2c0.3-0.6,0.7-1.2,1.1-1.7l-2.5-2.4c-1.8,1.9-2.8,4.5-2.9,7.1
	H31.1L31.1,18.3z M30.6,20c0.2,0.2,0.3,0.5,0.2,0.8l0,0c0,0-0.4,0.2-0.4,0l0,0c-0.1-0.3-0.1-0.6-0.1-0.9c0.1-0.3,0.2-0.6,0.4-0.9
	h-1.7c0,0.4,0,0.9,0.1,1.3h0.1c0.3,0.2,0.6,0.4,0.9,0.5c0.1,0,0.2,0,0.3-0.1l0,0c0,0.2,0.4,0,0.4,0l0,0c0.2,0.1,0.4,0.3,0.4,0.6
	c0.1,0.5,0.3,1.1,0.5,1.6c0.1,0.3,0.2,0.7,0.2,1c0.1,0.2,0.2,0.5,0.3,0.7c0,0.3,0.1,0.8,0.1,0.8l-0.3,0.3l2.2-2.2
	c-0.9-1-1.5-2.3-1.8-3.6c-0.1,0-0.2,0-0.3,0c-0.4,0.1,0.1,0.9-0.3,0.8s-0.5-0.2-0.4-0.4s0.3,0,0.3-0.5c0-0.3-0.5-0.5,0-0.5
	c0.2,0.1,0.3,0.2,0.5,0.2h0.1c0-0.2,0-0.4,0-0.6h-0.1H32c0,0.1-0.2,0.2-0.3,0.2c-0.7,0-0.5,0.4-0.5,0.6S30.6,19.8,30.6,20z
	 M32.6,17.8c-0.3-0.1-0.9-0.1-0.9,0.2c0,0.1,0,0.2,0.1,0.3h0.8C32.6,18.1,32.6,18,32.6,17.8L32.6,17.8z M36.2,21.9
	c-0.8,0,0-1.1-0.2-1.1c-0.5-0.1-0.2,0.6-0.4,0.6c-0.2,0-0.4-0.2-0.5-0.4c0-0.1,0.1-0.5-0.2-0.5c-0.3,0-0.6-0.1-0.8-0.2
	c-0.2-0.1-0.5-0.1-0.8-0.2c0.3,1.1,0.8,2.1,1.5,3L36.2,21.9z M37.2,20.6c-0.1-0.1-0.1-0.1-0.2-0.1c-0.3,0-0.5,0.9-0.7,1.2l1-1
	L37.2,20.6z M36.1,18.9c0,0.1-0.1,0.2-0.2,0.3c-0.2,0.2,0.3,0.2,0.7,0.1l0,0c0-0.2-0.1-0.3-0.1-0.5H36.1L36.1,18.9z M39.7,15.1
	c-0.2-0.1-0.3-0.1-0.3,0.1h0.3V15.1z M40.7,21.4c0.1-0.1,0.2-0.3,0.3-0.5c0.1-0.7,0.8-0.2,1.1-0.5c0.3-0.3,0.4-0.8,0.2-1.1
	c-0.2-0.2,0.6,0,0.6-0.3s-0.8,0.1-0.8-0.2c-0.4-0.5-0.5-1.1-0.2-1.7c0.1-0.3-0.6-0.1-0.7-0.9c-0.3-0.1-0.6-0.2-0.9-0.2
	c-0.1-0.1-0.2-0.2-0.3-0.3h-0.3c0.1,0.2,0,0.5-0.1,0.7c-0.3,0.2-0.5,0.1-0.7,0.3c0,0.2-0.1,0.3-0.2,0.5c-0.3,0.1-0.5,0.3-0.7,0.5
	c0.1,0.1,0.2,0.3,0.3,0.5c-0.1,0.1-0.4-0.2-0.5,0s0,0.9-0.3,0.9s0-0.4-0.3-0.6c0,0.1,0,0.1,0,0.2c0,0.2,0,0.4,0,0.6h0.1
	c0.3,0-0.1,0.2,0.3,0.2s0.3-0.7,0.5-0.6c0.2,0.4,0.1,0.9-0.2,1.2c-0.3,0.2-0.3-0.2-0.4,0c0,0,0,0.1,0,0.1c0.1,0.2,0.2,0.3,0.3,0.5
	c0.3,0,0.3-0.5,0.5-0.6s0-0.7,0.5-0.8s0.9-0.2,1,0.2c0,0.6-0.2,1.2-0.7,1.5c-0.3,0-0.6,0-1,0.1l0,0c0.5,0.4,1.1,0.5,1.7,0.5
	C40.3,21.4,40.4,21.4,40.7,21.4L40.7,21.4z M40.3,23.2c0.2-0.1,0.3-0.3,0.4-0.5c0.3-0.7-0.5,0-0.4-0.6v0l0,0L40.3,23.2L40.3,23.2z
	 M39.7,25.3c-0.1,0-0.2,0-0.3,0c-0.2-0.3-0.2-0.7,0.1-0.9c0.1,0,0.1-0.1,0.2-0.1v-2.1c-0.7-0.1-1.4-0.4-2-0.8l-2.5,2.4
	c1.2,1.1,2.8,1.8,4.4,1.9V25.3z M40.3,25.2c0.2-0.1,0.4-0.1,0.6-0.1c0.3-0.1,0.6,0,0.9,0.2c0.8-0.2,1.6-0.6,2.3-1.1
	c-0.1-0.2-0.4,0.2-0.7,0.2s-0.4-0.4,0-0.7s0.7-0.4,0.5-0.6c-0.3-0.1-0.7,0-0.8,0.3c-0.2,0.3-0.1,1.2-0.4,1.3c-0.3,0-0.7,0-1-0.1
	c-0.4-0.2-0.9-0.1-1.1,0.3c0,0-0.1,0.1-0.1,0.2l-0.1,0L40.3,25.2L40.3,25.2z M39.7,29.1c-0.3,0-0.6,0-0.9-0.1
	c-0.6-0.3-1.1-0.8-1.3-1.5c0.1-0.2,0.2-0.4,0.3-0.5c0.1-0.2,0.1-0.4,0.2-0.6c0.1-0.2,0.2-0.3,0.4-0.5c-1.3-0.3-2.5-1-3.5-1.9
	l-2.2,2.2c0.4,0.2,0.1,0.3,0.4,0.7c0.3,0.2,0.6,0.4,0.9,0.6c0.1,0.1,0.1,0.2,0.1,0.4c1.7,1.1,3.6,1.7,5.7,1.8L39.7,29.1L39.7,29.1z
	 M41.9,29.5c-0.1-0.2-0.1-0.3-0.2-0.5c-0.4-0.1-0.9-0.1-1.3,0.1v0.5C40.8,29.6,41.4,29.5,41.9,29.5L41.9,29.5z M45.3,33.1
	c-0.2,0-0.4-0.1-0.6-0.2c-0.2-0.1-0.5-0.3-0.7-0.4c-0.5-0.3-0.9-0.8-1.2-1.2c-0.3-0.4,0.3-0.9-0.5-1.4c-0.7,0.1-1.3,0.2-2,0.2V33
	c1.3,0,2.5-0.2,3.8-0.6c0.2,0.1,0.4,0.3,0.7,0.4c-1.4,0.5-2.9,0.7-4.4,0.8v3c4.6-0.1,9.1-2,12.3-5.3l-2.1-2c-1,0.9-2,1.8-3.2,2.4
	C46.8,32.3,46.1,32.8,45.3,33.1L45.3,33.1z M46.4,25.3c-1.1,0.1-1.8-0.7-1.9-0.6c-0.1,0.1-0.2,0.2-0.2,0.3c0.7,0.3,1.4,0.5,2.2,0.5
	c0.1,0,0.2,0,0.2-0.1L46.4,25.3z M48.7,18.9c0,0.1,0.1,0.2,0.1,0.2c0,0.3,1.1,1.3,1.1,1.6s-0.6,0.3-1,0.4c-0.4,0.1-0.7,0.2-1,0.3
	c-0.2,0-0.1-0.3-0.2-0.3c-0.2,0.4-0.5,0.7-0.7,1.1c-0.3,0.3-0.6,0.5-0.9,0.7c-0.1,0.1-0.2,0.3-0.3,0.4c0.1,0.2,0.7-0.2,0.9-0.2
	c0.1-0.2,0.3-0.4,0.5-0.6c0.3,0,0.3,0.1,0.5,0.5s-0.2,0.2-0.3,1.2c0,0.2-0.1,0.5-0.2,0.6l0,0c0.1-0.2,0.3-0.3,0.5-0.3
	c0.5-0.1,0.3,0.3,0.4,0.7c0,0.2,0.1,0.3,0.2,0.4c1.7-1.9,2.6-4.4,2.7-6.9L48.7,18.9L48.7,18.9z M50.8,17.3c-0.1,0.1-0.2,0.1-0.3,0
	c-0.2-0.1,0.1-0.5,0.2-0.9c0-0.2-0.1-0.3-0.1-0.5c-0.1,0.4-0.4,0.8-0.7,1.2c-0.2,0-0.5,0.1-0.6,0.3c-0.2,0.3-0.4,0.6-0.5,1h2.2
	C50.9,17.9,50.9,17.6,50.8,17.3z M44.6,13.5L44.6,13.5c-0.3,0-0.4,0.3-0.6,0s0.1-0.2,0.3-0.3c-1.1-0.9-2.5-1.5-4-1.5v2.6
	c0.2,0,0.3,0,0.4,0.1c0.9,0.6,0.8-0.8,1.2-0.5s-0.9,0.9-0.6,1.2s0.3-0.3,0.6-0.2c0.2,0.2,0.4,0.3,0.7,0.4c0.5,0,0.3-1,1.2-1.1H44
	l0.3-0.3c0-0.1-0.1-0.3,0.3-0.3l0,0L44.6,13.5z M53.2,12.8c-0.2,0.1-0.3,0.1-0.5,0.1c-0.5-0.1-0.5-1-1.1-1.2c-1.9-0.7-1.4-1-1.6-1.3
	s-0.6-0.1-0.8-0.3l-0.4,0.4c0.1,0.1,0.1,0.1,0.2,0.2c0.7,0.4,0.3,0.8,0.5,1c0.1,0,0.3,0,0.4,0.1c0.2,0.2-0.1,0.5,0.2,0.8
	c0.2,0.2,0.4,0.5,0.5,0.8c0,0.3,0.1,0.7,0,1c0.1,0.3,0.2,0.6,0.3,0.8c0.1-0.2,0.2-0.4,0.4-0.4c0.2,0,0,0.8-0.2,1.4
	c0.1,0.7,0.2,1.4,0.2,2.1h2.9C54.4,16.4,54,14.5,53.2,12.8L53.2,12.8z M51.3,8.1c0.2,0.2,0.6,0.5,0.7,0.6c0.3,0.4,0.5,0.8,0.8,1.2
	c0.2,0.5,1.4,2.1,1,2.5c0.8,1.8,1.2,3.8,1.2,5.9h2.9c-0.1-4.5-1.8-8.7-4.8-12L51.3,8.1z M46.6,5.1c0.3,0,0.6-0.1,0.9-0.3
	c0.2-0.3,1,0.2,1.1,0.1C48.6,4.6,48,3.9,49,4.4c0.7,0.3,0,0.5,0,0.8c0,0.3,0.2-0.1,1,0.8c0.4,0.5-0.2,0.3,0.2,0.8
	c0.2,0.2,0.5,0.4,0.8,0.3c0.1,0,0.1,0.1,0.1,0.1l1.4-1.4c-3.3-3.3-7.7-5.2-12.3-5.3v2.9C42.5,3.6,44.6,4.1,46.6,5.1L46.6,5.1z
	 M40.4,4.9c0.2,0,0.4,0.1,0.5,0.3c-0.1,0.2-0.3,0.3-0.5,0.2c0,0,0,0,0,0c0,0,0,0-0.1,0V7c2.5,0.1,5,1,6.9,2.6
	c-0.2-0.2-0.4-0.4-0.6-0.6c-0.2-0.1-0.4-0.4-0.2-0.5s-0.1-0.5,0-0.8c0.4,0,0.3,0.6,0.5,0.9s0.4-0.1,0.6,0.2s0,1,0.5,1.2
	c0.1,0,0.2,0.1,0.2,0.1l0.6-0.6c0-0.4-0.2-0.8-0.5-1.1C48,8.1,48,8.8,47.7,8.6c-0.3-0.4-0.4-0.9-0.4-1.3c0,0-0.7-0.1-0.5-1.1
	c0.1-0.2-0.5-0.2-0.6-0.5c-1.9-0.9-4-1.4-6.1-1.5V5C40.3,4.9,40.3,4.9,40.4,4.9z M50,28.7c-0.2,0.1-0.5,0.1-0.5-0.2s0-0.2-0.1-0.4
	l-1.3-1.3l-0.3,0.3c0,0.1,0,0.1,0,0.2c0.1,0.4,0.9,0.8,0.9,1.1s-0.4,0.9-0.4,1.1c0,0.3,0,0.6,0,0.9c0.7-0.5,1.3-1,1.9-1.6L50,28.7z
	 M49.8,26.5c0.6-0.1,0.7,1.4,0.6,1.8l0,0l0.1,0.1c2.4-2.6,3.8-6,3.8-9.5h-2.9c-0.1,2.8-1.1,5.5-3,7.5l0.8,0.9
	C49.3,26.9,49.5,26.6,49.8,26.5z M23.8,24.5c0.2-0.1,0.2,0.5,0.4,0.8c0.2,0.2,0.3,0.6,0.2,0.9c-0.1,0.2-0.2-0.3-0.4-0.8
	C23.9,25,23.9,24.8,23.8,24.5L23.8,24.5z M50,20c0.6-0.1,0.5,0.3,0.1,0.3S49.4,20,50,20z M48,24c0.2-0.2,0.5,0,0.2,0.2
	S47.8,24.1,48,24L48,24z M31.9,21.1c0.2-0.2,0.7,0.4,0.3,0.6S31.7,21.2,31.9,21.1L31.9,21.1z M39.2,21.2c0-0.1,0.1-0.2,0.2-0.1
	c0.1,0,0.2,0,0.2,0.1c0,0.1-0.1,0.2-0.2,0.2C39.3,21.4,39.2,21.3,39.2,21.2L39.2,21.2z M40.4,19.8c0-0.1,0.1-0.1,0.2-0.1
	c0.1,0,0.1,0.1,0.1,0.1c0,0.1-0.1,0.1-0.1,0.1C40.5,20,40.5,19.9,40.4,19.8L40.4,19.8z M39.1,18.6c0.3,0.3,0.2,0.5-0.2,0.4
	S39,18.4,39.1,18.6L39.1,18.6z M41.8,19.6c0.1,0,0.1,0.3,0,0.3S41.8,19.5,41.8,19.6L41.8,19.6z M43.8,13.6c0.1,0.1,0.2,0.3,0.1,0.4
	c-0.1,0.1-0.2,0.1-0.3,0.1C43.3,14,43.6,13.4,43.8,13.6L43.8,13.6z M43.3,14.2c0.2,0.1-0.1,0.7-0.3,0.6S43.1,14,43.3,14.2L43.3,14.2
	z M51,13.3c0.3,0.3,0.4,0.8,0.3,1.2C51,14.7,50.8,13.4,51,13.3z M50,11.1c0.1,0.1,0.2,0.2,0.2,0.3C50,11.5,49.8,11.1,50,11.1
	L50,11.1z M44.8,7.8c0.3,0.1,0.7,0.2,1,0.1c0.2,0,0.3-0.1,0.4-0.2c0,0,0.1,0.5-0.2,0.5C45.6,8.2,45.1,8,44.8,7.8z M43.6,4.9
	c0.2,0,0.3,0.4,0,0.4c-0.1,0-0.2,0-0.2-0.1C43.3,5,43.4,4.9,43.6,4.9C43.5,4.9,43.6,4.9,43.6,4.9z M45.1,7.3
	c0.1,0.1,0.2,0.2,0.2,0.3C45,7.7,44.9,7.3,45.1,7.3z M43.5,1.8c0.1,0.1-0.1,0.3-0.5,0.3c-0.3,0.2-0.6,0.2-0.9,0.1
	C41.8,2,42.6,2,42.8,1.8c0.1-0.2,0.4-0.3,0.6-0.1C43.4,1.7,43.4,1.8,43.5,1.8z M41.6,2c0.2,0.3,0.3,0.6,0.3,1
	c-0.2,0.1-0.4,0.1-0.6,0c-0.4-0.1-0.2-0.4-0.5-0.4s-0.5,0.2-0.4,0C40.7,2.3,41.1,2.1,41.6,2z"/>
<path class="st0" d="M40,41.5c-1.5-0.5-3.2-0.9-4.8-0.9c-2.4,0-6.3,1.2-7.6,1.4c-1.4,0.1-2.8,0-4.2-0.3c0,0,1.4,2.1,6.3,2.2
	c3.9,0,6.8-2.1,9.3-2.1c-4.1,1.6-5.6,4.1-5.6,4.1l1.2,0.3c0,0,3.2-3.8,5.5-4c2.2,0.2,5.5,4,5.5,4l1.2-0.3c0,0-1.4-2.5-5.6-4.1
	c2.5,0,5.4,2.1,9.3,2.1c4.9,0,6.3-2.2,6.3-2.2c-1.4,0.3-2.8,0.4-4.2,0.3c-1.3-0.2-5.3-1.4-7.7-1.4C43.2,40.7,41.6,41,40,41.5z
	 M55,32.1c-0.2,1.4-0.6,2.9-1.1,4.2c-0.6,1.4-1.6,2.5-2.9,3.3c1.3-0.6,2.7-1.1,4.1-1.5c2-0.4,3.9-1.2,5.6-2.2
	c-1.3,2.1-3.2,3.7-5.4,4.8c-2.3,1.1-5.2-0.5-7-0.5c0.6-0.5,1-0.5,2.7-3.5C52,35,53.3,33.4,55,32.1L55,32.1z M63.8,28.5
	c0,0-1.1,4.9-3.3,6.5c-1.9,1.3-3.9,2.2-6.1,2.7c0.7-2.3,0.8-4.7,1.2-5.7c0.8-1.9,2.5-5,2.5-5c0.3,1.8,0.1,3.7-0.4,5.5
	c-0.6,1.5-1.4,3-1.4,3s3-2.5,3.8-3.2C61.6,31.3,62.8,30,63.8,28.5L63.8,28.5z M65.5,21.5c0,0-0.5,4.3-2.3,6.5
	c-1.6,2-2.9,2.4-4.5,4.1c0.1-0.9,0.2-1.9,0.2-2.8c-0.2-1.5-0.2-3-0.2-4.5c0.1-1.6,0.5-3.1,1-4.6c0.3,1.7,0.5,3.3,0.7,5
	c-0.1,1.4-0.2,2.8-0.5,4.1c0.7-1.3,1.6-2.6,2.5-3.9C63.6,24.3,64.5,23,65.5,21.5L65.5,21.5z M65.6,13.4c0.5,2,0.4,4-0.1,5.9
	c-0.8,2.5-2,3-3.8,6.5c0.2-1.1,0-2.2-0.5-3.2c-1.1-2.2-1.5-4.7-1.4-7.2c0.8,1.2,1.4,2.4,2,3.6c0.4,1.3,0.6,2.7,0.5,4.1
	c0,0,1-3.6,1.4-4.8C64.1,17.1,65,15.8,65.6,13.4L65.6,13.4z M62.3,6.9c0.1,1.4,0.2,2.8,0.2,4.3c-0.2,1.7-0.2,3.5-0.1,5.2
	c-0.4-1.2-1-2.4-1.7-3.5c-0.8-0.9-1.8-1.8-2.7-2.6c0.3,1.7,1.1,3.3,2.1,4.7c1.3,1.5,2.2,3.3,2.5,5.2c1-2.3,1.5-4.7,1.7-7.2
	C64.5,10.8,63.8,8.6,62.3,6.9z M58.8,3.3c1.1,2.6,1.2,5.1,1.7,7.2c-0.5-1.1-1.2-2-2.1-2.8c-1.1-0.7-2.1-1.6-2.9-2.6
	c-0.1,0.2,0,2.8,2.7,4.7c1.3,0.9,2.4,2.1,3.3,3.4c0-3.6,0.5-2.8,0.4-4.8C61.5,4.4,58.8,3.3,58.8,3.3z M25.1,32.1
	c0.2,1.4,0.6,2.9,1.1,4.2c0.6,1.4,1.6,2.5,2.9,3.3c-1.3-0.6-2.7-1.1-4.1-1.5c-2-0.4-3.9-1.2-5.6-2.2c1.3,2.1,3.2,3.7,5.4,4.8
	c2.2,1.1,5.1-0.5,6.9-0.5c-0.6-0.5-1-0.5-2.7-3.5C28,35,26.7,33.4,25.1,32.1z M16.2,28.5c0,0,1.1,4.9,3.3,6.5
	c1.9,1.3,3.9,2.2,6.1,2.7C25,35.4,24.8,33,24.4,32c-0.8-1.9-2.5-5-2.5-5c-0.3,1.8-0.1,3.7,0.4,5.5c0.6,1.5,1.4,3,1.4,3
	s-3-2.5-3.9-3.2C18.5,31.3,17.2,30,16.2,28.5z M14.5,21.5c0,0,0.4,4.2,2.2,6.5c1.6,2,2.9,2.4,4.5,4.1c-0.1-0.9-0.2-1.8-0.2-2.7
	c0.2-1.5,0.2-3,0.2-4.5c-0.1-1.6-0.5-3.1-1-4.6c-0.3,1.7-0.5,3.3-0.6,5c0.1,1.4,0.2,2.8,0.5,4.1c-0.7-1.3-1.6-2.6-2.5-3.9
	C16.4,24.3,15.5,23,14.5,21.5L14.5,21.5z M14.4,13.5c-0.5,2-0.4,4,0.1,5.9c0.8,2.5,2,3,3.8,6.4c-0.2-1.1,0-2.2,0.5-3.2
	c1.1-2.2,1.5-4.7,1.4-7.2c-0.8,1.2-1.4,2.4-2,3.6c-0.4,1.3-0.6,2.7-0.5,4.1c0,0-1-3.6-1.4-4.8S15,15.8,14.4,13.5z M17.7,6.9
	c-0.1,1.4-0.2,2.8-0.2,4.3c0.2,1.7,0.2,3.5,0.1,5.2c0.4-1.2,1-2.4,1.7-3.5c0.8-0.9,1.8-1.8,2.7-2.6C21.7,12,21,13.6,19.9,15
	c-1.3,1.5-2.2,3.3-2.5,5.2c-1-2.3-1.5-4.7-1.7-7.2C15.5,10.8,16.2,8.6,17.7,6.9z M21.2,3.3c-1.1,2.6-1.1,5.1-1.7,7.2
	c0.5-1.1,1.2-2,2.1-2.8c1.1-0.7,2.1-1.6,2.9-2.6c0.1,0.2,0,2.8-2.7,4.7c-1.3,0.9-2.4,2.1-3.3,3.4c0-3.6-0.5-2.8-0.4-4.8
	C18.5,4.4,21.2,3.3,21.2,3.3z M54,1.7c1.2,2.5,3.1,4.6,5.4,6.1C59.1,4.8,56.9,2.4,54,1.7z M25.8,1.7c-1.2,2.5-3.1,4.6-5.4,6.1
	C20.7,4.9,22.9,2.4,25.8,1.7L25.8,1.7z"/>
</svg>
