<svg width="71" height="85" viewBox="0 0 71 85" fill="none" xmlns="http://www.w3.org/2000/svg">
<path d="M66.3872 59.1856C66.3872 52.1361 63.9021 46.1516 58.8812 41.1307C53.8603 36.1098 47.7744 33.6248 40.6742 33.6248H34.2333L30.3281 46.1009H40.6235C44.275 46.1009 47.4194 47.3688 49.9552 49.9553C52.5417 52.4911 53.8603 55.5848 53.8603 59.1856" fill="#F8BF17"/>
<path d="M53.8604 59.1855C53.8604 62.8371 52.5925 65.9815 50.006 68.568C47.4194 71.1545 44.2751 72.4731 40.6742 72.4731C36.6677 72.4731 33.3204 70.9517 30.6832 67.9087L21.25 76.1247C26.3723 82.0585 32.864 85 40.6742 85C47.7237 85 53.8097 82.4642 58.8305 77.4433C63.8514 72.4224 66.3365 66.3365 66.3365 59.2363" fill="#EC6321"/>
<path d="M34.2333 33.6247L35.8562 28.401L34.1826 33.6247H34.2333Z" fill="#009BD9"/>
<path d="M44.7822 0H0V12.4254H27.7924H40.8771L44.7822 0Z" fill="#39BAE5"/>
<path d="M10.701 66.2351H23.7858L30.3281 46.1516H17.2434L10.701 66.2351Z" fill="#62B231"/>
<path d="M27.7923 12.4254L17.2434 46.1515L27.7923 12.4254Z" fill="#E01634"/>
<path d="M36.972 25.003H56.8019V12.4254H40.8771L35.8562 28.401L36.972 25.003Z" fill="#D80361"/>
<path d="M34.1825 33.6247L35.8562 28.401L40.8771 12.4254H27.7923L17.2434 46.1515H30.3281L34.2333 33.6247H34.1825Z" fill="#005385"/>
<path d="M70.698 53.7083H36.5662V66.2351H70.698V53.7083Z" fill="white"/>
<path d="M46.8616 59.642C46.8616 58.8306 46.0501 58.6784 45.4415 58.6784C44.9851 58.6784 44.5794 58.7798 44.1229 59.0334L43.7679 58.3234C44.4779 58.0191 45.0865 57.9684 45.4923 57.9684C46.6587 57.9684 47.7238 58.4755 47.7238 59.5913V62.8371H46.963V62.33C46.5573 62.7864 46.0501 62.9386 45.4415 62.9386C44.2751 62.9386 43.3622 62.2792 43.3622 61.2142C43.3622 60.352 44.1229 59.5913 45.4415 59.5913C45.9487 59.5913 46.4559 59.7434 46.9123 60.1492V59.642H46.8616ZM45.543 60.352C44.5287 60.352 44.1736 60.8592 44.1736 61.3156C44.1736 61.7721 44.5287 62.2792 45.543 62.2792C46.5573 62.2792 46.9123 61.7721 46.9123 61.3156C46.9123 60.8592 46.5573 60.352 45.543 60.352Z" fill="#036BAA"/>
<path d="M52.2882 60.0984C52.2882 59.3884 51.9839 58.7798 51.1724 58.7798C50.4117 58.7798 49.9553 59.287 49.9553 60.1999V62.8878H49.1438V58.1205H49.9553V58.6784C50.2088 58.2219 50.716 58.0191 51.2739 58.0191C52.1868 58.0191 53.0996 58.5262 53.0996 59.7941V62.8878H52.2882V60.0984ZM49.7017 57.2583C49.7017 56.7005 49.9553 56.244 50.4624 56.244C50.9696 56.244 51.5274 56.6497 51.781 56.6497C51.9332 56.6497 52.136 56.5483 52.136 56.244H52.4911C52.4911 56.8019 52.2375 57.2583 51.7303 57.2583C51.2232 57.2583 50.6653 56.8526 50.4117 56.8526C50.2596 56.8526 50.0567 56.954 50.0567 57.2583H49.7017Z" fill="#036BAA"/>
<path d="M56.9541 57.9684C58.4756 57.9684 59.5406 59.1349 59.5406 60.4535C59.5406 61.8228 58.5263 62.9386 56.9541 62.9386C55.3819 62.9386 54.3676 61.8228 54.3676 60.4535C54.3676 59.1349 55.4326 57.9684 56.9541 57.9684ZM55.2297 60.4535C55.2297 61.3664 56.0412 62.1778 56.9541 62.1778C57.867 62.1778 58.6784 61.3664 58.6784 60.4535C58.6784 59.4391 57.867 58.7291 56.9541 58.7291C56.0412 58.7291 55.2297 59.4899 55.2297 60.4535Z" fill="#036BAA"/>
<path d="M61.265 61.4678C61.3157 61.975 61.7721 62.2286 62.2793 62.2286C63.04 62.2286 63.2429 61.8229 63.2429 61.5186C63.2429 61.2143 63.04 61.0114 62.3807 60.8593L61.5693 60.6057C60.8592 60.4028 60.6057 59.9464 60.6057 59.3885C60.6057 58.577 61.2142 57.9177 62.33 57.9177C63.5472 57.9177 63.9529 58.6785 63.9529 59.3885H63.1922C63.1415 58.8306 62.8372 58.577 62.2793 58.577C61.7721 58.577 61.4171 58.8813 61.4171 59.2871C61.4171 59.5406 61.5693 59.7435 61.9243 59.8449L63.04 60.1492C63.8008 60.3521 64.0543 60.7578 64.0543 61.4171C64.0543 62.3807 63.1922 62.8879 62.33 62.8879C61.2142 62.8879 60.5549 62.2793 60.5549 61.3664H61.265V61.4678Z" fill="#036BAA"/>
</svg>
